<?xml version="1.0" encoding="UTF-8" standalone="no"?>
<!DOCTYPE svg PUBLIC "-//W3C//DTD SVG 1.1//EN" "http://www.w3.org/Graphics/SVG/1.1/DTD/svg11.dtd">
<!-- Created with Vectornator (http://vectornator.io/) -->
<svg height="100%" stroke-miterlimit="10" style="fill-rule:nonzero;clip-rule:evenodd;stroke-linecap:round;stroke-linejoin:round;" version="1.1" viewBox="6.1197 6.38121 51.7606 51.2376" width="100%" xml:space="preserve" xmlns="http://www.w3.org/2000/svg" xmlns:xlink="http://www.w3.org/1999/xlink">
<defs/>
<g id="Layer-2">
<path d="M32 6.38121C31.2146 6.38122 30.4419 6.6777 29.8494 7.28674L6.9849 30.7926C5.82242 31.9875 5.8278 33.8937 7.02263 35.0561C8.21745 36.2186 10.1237 36.1755 11.2861 34.9807L12.6444 33.5847L12.6444 54.6004C12.6444 56.2674 13.9958 57.6188 15.6628 57.6188L48.3372 57.6188C50.0042 57.6188 51.3556 56.2674 51.3556 54.6004L51.3556 33.5847L52.7139 34.9807C53.8763 36.1755 55.7825 36.2186 56.9774 35.0561C58.1722 33.8937 58.1776 31.9875 57.0151 30.7926L34.1506 7.28674C33.5581 6.6777 32.7854 6.38121 32 6.38121ZM32 13.7009L45.3188 27.3969L45.3188 51.582L18.6813 51.582L18.6813 27.3969L32 13.7009Z" fill="#000000" fill-rule="nonzero" opacity="1" stroke="none"/>
</g>
</svg>
