<?xml version="1.0" encoding="UTF-8" standalone="no"?>
<!DOCTYPE svg PUBLIC "-//W3C//DTD SVG 1.1//EN" "http://www.w3.org/Graphics/SVG/1.1/DTD/svg11.dtd">
<!-- Created with Vectornator (http://vectornator.io/) -->
<svg height="64.0pt" stroke-miterlimit="10" style="fill-rule:nonzero;clip-rule:evenodd;stroke-linecap:round;stroke-linejoin:round;" version="1.1" viewBox="0 0 64 64" width="64.0pt" xml:space="preserve" xmlns="http://www.w3.org/2000/svg" xmlns:xlink="http://www.w3.org/1999/xlink">
<defs/>
<g id="Layer-1" visibility="hidden">
<path d="M15.0787 5.46474C8.38097 5.46475 2.94736 10.8983 2.94736 17.596C2.94737 24.2937 8.38097 29.7173 15.0787 29.7173C21.7764 29.7173 27.1999 24.2937 27.1999 17.596C27.1999 10.8983 21.7764 5.46474 15.0787 5.46474ZM15.0787 12.5035C17.8905 12.5035 20.1712 14.7842 20.1712 17.596C20.1712 20.4079 17.8905 22.6785 15.0787 22.6785C12.2668 22.6785 9.98613 20.4079 9.98614 17.596C9.98614 14.7842 12.2668 12.5035 15.0787 12.5035Z" fill="#000000" fill-rule="nonzero" opacity="1" stroke="none"/>
<path d="M48.9314 34.2827C42.2337 34.2827 36.8001 39.7164 36.8001 46.414C36.8001 53.1117 42.2337 58.5353 48.9314 58.5353C55.6291 58.5353 61.0526 53.1117 61.0526 46.414C61.0526 39.7164 55.6291 34.2827 48.9314 34.2827ZM48.9314 41.3215C51.7433 41.3215 54.024 43.6022 54.0239 46.414C54.0239 49.2259 51.7433 51.4965 48.9314 51.4965C46.1196 51.4965 43.8389 49.2259 43.8389 46.414C43.8389 43.6022 46.1196 41.3215 48.9314 41.3215Z" fill="#000000" fill-rule="nonzero" opacity="1" stroke="none"/>
<path d="M5.59288 42.5887L32.4336 42.5887L32.4336 50.2293L5.59288 50.2293L5.59288 42.5887Z" fill="#000000" fill-rule="nonzero" opacity="1" stroke="none"/>
<path d="M32.2391 13.7707L59.0798 13.7707L59.0798 21.4113L32.2391 21.4113L32.2391 13.7707Z" fill="#000000" fill-rule="nonzero" opacity="1" stroke="none"/>
</g>
<g id="Layer-2" visibility="hidden">
<path d="M32 6.38121C31.2146 6.38122 30.4419 6.6777 29.8494 7.28674L6.9849 30.7926C5.82242 31.9875 5.8278 33.8937 7.02263 35.0561C8.21745 36.2186 10.1237 36.1755 11.2861 34.9807L12.6444 33.5847L12.6444 54.6004C12.6444 56.2674 13.9958 57.6188 15.6628 57.6188L48.3372 57.6188C50.0042 57.6188 51.3556 56.2674 51.3556 54.6004L51.3556 33.5847L52.7139 34.9807C53.8763 36.1755 55.7825 36.2186 56.9774 35.0561C58.1722 33.8937 58.1776 31.9875 57.0151 30.7926L34.1506 7.28674C33.5581 6.6777 32.7854 6.38121 32 6.38121ZM32 13.7009L45.3188 27.3969L45.3188 51.582L18.6813 51.582L18.6813 27.3969L32 13.7009Z" fill="#000000" fill-rule="nonzero" opacity="1" stroke="none"/>
</g>
<g id="Layer-3">
<path d="M20.2266 5.60269C12.0932 5.60269 5.47658 12.1881 5.47659 20.3214C5.47659 20.7987 5.47659 42.7909 5.47659 43.7277C5.47659 51.861 12.0932 58.4464 20.2266 58.4464L43.6016 58.4464C51.7349 58.4464 58.3516 51.861 58.3516 43.7277L58.3516 20.3214C58.3516 12.1881 51.7349 5.60269 43.6016 5.60269C42.8703 5.60269 20.9579 5.60269 20.2266 5.60269ZM20.2266 11.6027L43.6016 11.6027C48.422 11.6027 52.3516 15.501 52.3516 20.3214L52.3516 43.7277C52.3516 48.5481 48.422 52.4464 43.6016 52.4464L20.2266 52.4464C15.4062 52.4464 11.4766 48.5481 11.4766 43.7277C11.4766 42.7909 11.4766 21.2582 11.4766 20.3214C11.4766 15.501 15.4062 11.6027 20.2266 11.6027Z" fill="#000000" fill-rule="nonzero" opacity="1" stroke="none"/>
</g>
<g id="Layer-4" visibility="hidden">
<path d="M26.0836 14.4944C26.0836 11.2413 28.7208 8.60412 31.9739 8.60412C35.2271 8.60412 37.8643 11.2413 37.8643 14.4944C37.8643 17.7476 35.2271 20.3848 31.9739 20.3848C28.7208 20.3848 26.0836 17.7476 26.0836 14.4944Z" fill="#000000" fill-rule="nonzero" opacity="1" stroke="none"/>
<path d="M26.0836 32.0104C26.0836 28.7573 28.7208 26.1201 31.9739 26.1201C35.2271 26.1201 37.8643 28.7573 37.8643 32.0104C37.8643 35.2636 35.2271 37.9007 31.9739 37.9007C28.7208 37.9007 26.0836 35.2636 26.0836 32.0104Z" fill="#000000" fill-rule="nonzero" opacity="1" stroke="none"/>
<path d="M26.1357 49.5056C26.1357 46.2524 28.7729 43.6152 32.0261 43.6152C35.2792 43.6152 37.9164 46.2524 37.9164 49.5056C37.9164 52.7587 35.2792 55.3959 32.0261 55.3959C28.7729 55.3959 26.1357 52.7587 26.1357 49.5056Z" fill="#000000" fill-rule="nonzero" opacity="1" stroke="none"/>
</g>
<g id="Layer-5" visibility="hidden">
<path d="M10.3165 28.8403C8.57146 28.8403 7.15681 30.2549 7.15681 32C7.15681 33.7451 8.57146 35.1597 10.3165 35.1597L53.6835 35.1597C55.4285 35.1597 56.8432 33.7451 56.8432 32C56.8432 30.2549 55.4285 28.8403 53.6835 28.8403L10.3165 28.8403Z" fill="#000000" fill-rule="nonzero" opacity="1" stroke="none"/>
<path d="M32 7.15681C30.2549 7.15681 28.8403 8.57146 28.8403 10.3165L28.8403 53.6835C28.8403 55.4285 30.2549 56.8432 32 56.8432C33.7451 56.8432 35.1597 55.4285 35.1597 53.6835L35.1597 10.3165C35.1597 8.57146 33.7451 7.15681 32 7.15681Z" fill="#000000" fill-rule="nonzero" opacity="1" stroke="none"/>
</g>
<g id="Layer-6" visibility="hidden">
<g opacity="1">
<path d="M9.34481 36.0663C7.09904 36.0663 5.27849 37.8869 5.27849 40.1326L5.27849 47.1035C5.27849 49.3492 7.09904 51.1698 9.34481 51.1698C11.5906 51.1698 13.4111 49.3492 13.4111 47.1035L13.4111 40.1326C13.4111 37.8869 11.5906 36.0663 9.34481 36.0663Z" fill="#000000" fill-rule="nonzero" opacity="1" stroke="none"/>
<path d="M24.4483 27.9337C22.2025 27.9337 20.382 29.7542 20.382 32L20.382 47.1035C20.382 49.3492 22.2025 51.1698 24.4483 51.1698C26.694 51.1698 28.5146 49.3492 28.5146 47.1035L28.5146 32C28.5146 29.7542 26.694 27.9337 24.4483 27.9337Z" fill="#000000" fill-rule="nonzero" opacity="1" stroke="none"/>
<path d="M39.5517 19.8011C37.306 19.8011 35.4854 21.6216 35.4854 23.8674L35.4854 47.1035C35.4854 49.3492 37.306 51.1698 39.5517 51.1698C41.7975 51.1698 43.618 49.3492 43.618 47.1035L43.618 23.8674C43.618 21.6216 41.7975 19.8011 39.5517 19.8011Z" fill="#000000" fill-rule="nonzero" opacity="1" stroke="none"/>
<path d="M54.6552 12.8302C52.4094 12.8302 50.5889 14.6508 50.5889 16.8965L50.5889 47.1035C50.5889 49.3492 52.4094 51.1698 54.6552 51.1698C56.901 51.1698 58.7215 49.3492 58.7215 47.1035L58.7215 16.8965C58.7215 14.6508 56.9009 12.8302 54.6552 12.8302Z" fill="#000000" fill-rule="nonzero" opacity="1" stroke="none"/>
</g>
</g>
</svg>
