<?xml version="1.0" encoding="UTF-8" standalone="no"?>
<!DOCTYPE svg PUBLIC "-//W3C//DTD SVG 1.1//EN" "http://www.w3.org/Graphics/SVG/1.1/DTD/svg11.dtd">
<!-- Created with Vectornator (http://vectornator.io/) -->
<svg height="64.0pt" stroke-miterlimit="10" style="fill-rule:nonzero;clip-rule:evenodd;stroke-linecap:round;stroke-linejoin:round;" version="1.1" viewBox="0 0 64 64" width="64.0pt" xml:space="preserve" xmlns="http://www.w3.org/2000/svg" xmlns:xlink="http://www.w3.org/1999/xlink">
<defs/>
<g id="Layer-1">
<path d="M15.0787 5.46474C8.38097 5.46475 2.94736 10.8983 2.94736 17.596C2.94737 24.2937 8.38097 29.7173 15.0787 29.7173C21.7764 29.7173 27.1999 24.2937 27.1999 17.596C27.1999 10.8983 21.7764 5.46474 15.0787 5.46474ZM15.0787 12.5035C17.8905 12.5035 20.1712 14.7842 20.1712 17.596C20.1712 20.4079 17.8905 22.6785 15.0787 22.6785C12.2668 22.6785 9.98613 20.4079 9.98614 17.596C9.98614 14.7842 12.2668 12.5035 15.0787 12.5035Z" fill="#000000" fill-rule="nonzero" opacity="1" stroke="none"/>
<path d="M48.9314 34.2827C42.2337 34.2827 36.8001 39.7164 36.8001 46.414C36.8001 53.1117 42.2337 58.5353 48.9314 58.5353C55.6291 58.5353 61.0526 53.1117 61.0526 46.414C61.0526 39.7164 55.6291 34.2827 48.9314 34.2827ZM48.9314 41.3215C51.7433 41.3215 54.024 43.6022 54.0239 46.414C54.0239 49.2259 51.7433 51.4965 48.9314 51.4965C46.1196 51.4965 43.8389 49.2259 43.8389 46.414C43.8389 43.6022 46.1196 41.3215 48.9314 41.3215Z" fill="#000000" fill-rule="nonzero" opacity="1" stroke="none"/>
<path d="M5.59288 42.5887L32.4336 42.5887L32.4336 50.2293L5.59288 50.2293L5.59288 42.5887Z" fill="#000000" fill-rule="nonzero" opacity="1" stroke="none"/>
<path d="M32.2391 13.7707L59.0798 13.7707L59.0798 21.4113L32.2391 21.4113L32.2391 13.7707Z" fill="#000000" fill-rule="nonzero" opacity="1" stroke="none"/>
</g>
<g id="Layer-2" visibility="hidden">
<path d="M32 6.38121C31.2146 6.38122 30.4419 6.6777 29.8494 7.28674L6.9849 30.7926C5.82242 31.9875 5.8278 33.8937 7.02263 35.0561C8.21745 36.2186 10.1237 36.1755 11.2861 34.9807L12.6444 33.5847L12.6444 54.6004C12.6444 56.2674 13.9958 57.6188 15.6628 57.6188L48.3372 57.6188C50.0042 57.6188 51.3556 56.2674 51.3556 54.6004L51.3556 33.5847L52.7139 34.9807C53.8763 36.1755 55.7825 36.2186 56.9774 35.0561C58.1722 33.8937 58.1776 31.9875 57.0151 30.7926L34.1506 7.28674C33.5581 6.6777 32.7854 6.38121 32 6.38121ZM32 13.7009L45.3188 27.3969L45.3188 51.582L18.6813 51.582L18.6813 27.3969L32 13.7009Z" fill="#000000" fill-rule="nonzero" opacity="1" stroke="none"/>
</g>
</svg>
